<svg width="154" height="60" viewBox="0 0 154 60" fill="none" xmlns="http://www.w3.org/2000/svg">
<path d="M80.0524 20.8556L83.2521 14.0655C83.5639 13.4141 84.2678 13.0443 85.0027 13.1454C89.657 15.3696 97.9631 16.3498 100.706 13.4484L102.808 11.5637C104.155 10.3562 106.364 11.0518 107.631 12.4195L107.672 12.4642C108.69 13.5628 109.016 14.6216 107.957 16.5552C106.893 18.4972 101.53 23.2324 101.53 23.2324L91.4674 32.2542C90.7728 32.877 89.6797 32.81 89.0262 32.1046L87.8429 30.8272L80.7428 23.163L80.3606 22.7504C79.8766 22.2279 79.7546 21.478 80.0524 20.8556Z" fill="white"/>
<path d="M83.2521 14.0655C83.5639 13.4141 84.2678 13.0443 85.0027 13.1454C89.657 15.3696 97.9631 16.3498 100.706 13.4484L102.808 11.5637C104.155 10.3562 106.364 11.0518 107.631 12.4195L107.672 12.4642C108.69 13.5628 109.016 14.6216 107.957 16.5552C107.668 17.0821 107.062 17.8154 106.333 18.6036L81.8218 17.101L83.2521 14.0655Z" fill="#447A87"/>
<path d="M87.3406 30.2849C94.573 23.8005 93.9346 26.5289 98.1797 22.7228C102.306 19.0236 107.095 12.5216 107.361 12.159C107.452 12.2384 107.541 12.3231 107.628 12.4163L107.669 12.461C108.687 13.5596 109.013 14.6185 107.954 16.552C106.89 18.4941 101.527 23.2292 101.527 23.2292L91.4644 32.251C90.7698 32.8738 89.6768 32.8068 89.0233 32.1014L87.3406 30.2849Z" fill="black"/>
<path d="M89.0351 32.1142C89.6889 32.8199 90.7813 32.8869 91.4763 32.2638L101.539 23.242C101.539 23.242 106.901 18.5044 107.964 16.5635C108.405 15.7592 108.605 15.1059 108.617 14.5403C108.588 14.5717 108.562 14.6047 108.531 14.6344C95.2781 27.6685 92.8086 28.731 92.8086 28.731L89.0351 32.1142V32.1142Z" fill="#E2E4E5"/>
<path d="M107.36 12.1593C107.452 12.2387 107.541 12.3234 107.628 12.4166L107.669 12.4613C108.687 13.5599 109.013 14.6187 107.954 16.5523C107.665 17.0798 107.057 17.8145 106.327 18.6038L102.385 18.3625C105.023 15.3332 107.184 12.3994 107.36 12.1593Z" fill="black"/>
<path d="M98.2874 22.6322L97.6585 23.196C95.7415 21.1267 91.2624 21.2825 88.7829 23.5056C87.1084 25.0068 85.211 25.9077 83.4432 26.0786L82.68 25.2547C84.4342 25.3029 86.4309 24.4451 88.1912 22.8669C91.0345 20.3177 96.0355 20.2013 98.2874 22.6322Z" fill="#21B2D1"/>
<path d="M97.3768 14.6115C97.8076 14.5993 98.1913 14.9036 98.2756 15.3232L98.7495 17.689C98.7948 17.9162 98.746 18.1488 98.6134 18.3343C98.4808 18.5199 98.2761 18.642 98.0462 18.6727L92.2867 19.4498C92.0316 19.4845 91.7706 19.4034 91.5757 19.2297C91.3808 19.056 91.272 18.8075 91.2802 18.5529L91.373 15.5567C91.3866 15.1172 91.7386 14.7707 92.1844 14.758L97.3768 14.6115Z" fill="#FACB1B"/>
<path d="M80.3606 22.7504L82.68 25.2541C84.4363 25.3045 86.4318 24.4449 88.1928 22.8661C88.8405 22.2853 89.6006 21.8319 90.4177 21.5085C91.0083 18.3308 90.422 15.1502 90.3588 14.8211C88.4013 14.4541 86.5119 13.8624 85.0055 13.1435C84.2688 13.0441 83.5633 13.4135 83.2527 14.0662L80.0555 20.8552C79.755 21.4753 79.8784 22.2299 80.3606 22.7504Z" fill="black"/>
<path d="M98.7498 17.6894L98.2759 15.3236C98.2396 15.1433 98.1463 14.9867 98.0195 14.8648C99.1376 14.5761 100.074 14.1133 100.708 13.4407L102.809 11.5574C103.746 10.7173 105.098 10.7971 106.26 11.3864C105.967 11.6489 103.318 17.5821 98.7612 17.8961C98.7651 17.8277 98.7636 17.7583 98.7498 17.6894Z" fill="black"/>
<path d="M91.373 15.5567C91.3866 15.1172 91.7383 14.7703 92.1844 14.7579L97.3771 14.6112C97.8079 14.599 98.1917 14.9033 98.2762 15.3232L98.7502 17.6891C98.7809 17.8415 98.7651 17.9954 98.7137 18.1368L91.3072 17.6828L91.373 15.5567Z" fill="#FBE158"/>
<path d="M83.2527 14.0662L82.0946 16.5256C80.9001 15.1244 80.4945 14.0143 81.0316 13.5327C81.3379 13.2581 83.3821 13.687 83.4903 13.7099C83.3983 13.8176 83.3155 13.9345 83.2527 14.0662Z" fill="#FBE158"/>
<path d="M83.2527 14.0662C83.5633 13.4135 84.2688 13.0441 85.0055 13.1435C86.5119 13.8624 88.4013 14.4541 90.3588 14.8211C90.3949 15.0091 90.6008 16.1275 90.6615 17.6433L81.8236 17.1018L83.2527 14.0662Z" fill="black"/>
<path d="M108.531 14.6344C108.561 14.6047 108.588 14.5714 108.617 14.5403C108.605 15.1059 108.405 15.7592 107.964 16.5635C107.667 17.1068 107.032 17.8696 106.272 18.6861L104.474 18.5758C105.701 17.3998 107.045 16.0963 108.531 14.6344Z" fill="#E2E4E5"/>
<path d="M87.1803 20.275C88.2322 20.5163 89.2566 19.8767 89.468 18.846L90.2767 14.9058C90.3707 14.4474 90.0678 13.9893 89.6003 13.8818L87.4838 13.396C87.016 13.2887 86.5612 13.5732 86.4669 14.0313L85.6582 17.9715C85.4468 19.0022 86.1285 20.0338 87.1803 20.275Z" fill="#FACB1B"/>
<path d="M86.4669 14.0312C86.5609 13.5728 87.0161 13.2887 87.4839 13.396L89.6003 13.8818C90.0678 13.9887 90.3707 14.4474 90.2767 14.9058L89.7268 17.5862L85.7874 17.3447L86.4669 14.0312Z" fill="#FBE158"/>
<path d="M88.1585 33.1703L95.6987 34.1645C96.4235 34.2644 96.9911 34.8162 97.1108 35.5367C96.3307 40.5689 97.8405 48.6637 101.47 50.3814L103.923 51.798C105.494 52.7056 105.473 54.9868 104.521 56.5826L104.49 56.6348C103.725 57.9165 102.794 58.537 100.603 58.1147C98.4019 57.6903 92.2156 54.0546 92.2156 54.0546L80.475 47.2735C79.6645 46.8054 79.4057 45.7585 79.8969 44.9354L80.7863 43.4451L86.123 34.5028L86.4103 34.0214C86.7741 33.4118 87.466 33.0749 88.1585 33.1703Z" fill="white"/>
<path d="M95.6987 34.1645C96.4235 34.2644 96.9911 34.8162 97.1108 35.5367C96.3307 40.5689 97.8405 48.6637 101.47 50.3814L103.923 51.798C105.494 52.7056 105.473 54.9868 104.521 56.5826L104.49 56.6348C103.725 57.9165 102.794 58.537 100.603 58.1147C100.005 57.9993 99.1139 57.6472 98.1327 57.1957L92.3279 33.7201L95.6987 34.1645Z" fill="#447A87"/>
<path d="M81.1639 42.8124C89.6025 47.6864 86.7645 47.895 91.7176 50.7558C96.5316 53.5363 104.263 56.1095 104.694 56.2516C104.644 56.361 104.588 56.4701 104.523 56.5789L104.492 56.631C103.727 57.9128 102.796 58.5333 100.605 58.111C98.4041 57.6866 92.2179 54.0509 92.2179 54.0509L80.4772 47.2698C79.6668 46.8016 79.4079 45.7548 79.8991 44.9317L81.1639 42.8124Z" fill="black"/>
<path d="M79.8902 44.9466C79.3988 45.7701 79.6575 46.8163 80.4683 47.2847L92.2089 54.0658C92.2089 54.0658 98.3974 57.7003 100.597 58.1238C101.508 58.2995 102.202 58.2944 102.754 58.1375C102.715 58.12 102.676 58.105 102.638 58.0851C86.0562 49.495 84.2929 47.4896 84.2929 47.4896L79.8902 44.9466V44.9466Z" fill="#E2E4E5"/>
<path d="M104.694 56.2514C104.644 56.3608 104.588 56.4699 104.523 56.5787L104.492 56.6308C103.727 57.9126 102.796 58.5331 100.605 58.1108C100.007 57.9955 99.1134 57.6423 98.1307 57.19L97.197 53.415C100.92 54.996 104.408 56.1573 104.694 56.2514Z" fill="black"/>
<path d="M91.8375 50.8301L91.1037 50.4062C92.5446 47.9918 91.066 43.8295 88.173 42.1586C86.2193 41.0302 84.7824 39.5143 84.0927 37.904L84.6664 36.9427C85.1395 38.6053 86.5639 40.2271 88.6177 41.4134C91.9352 43.3295 93.5301 47.9939 91.8375 50.8301Z" fill="#21B2D1"/>
<path d="M99.3544 47.5976C99.4939 47.9988 99.3122 48.4496 98.9298 48.653L96.7734 49.7995C96.5663 49.9093 96.326 49.9324 96.1066 49.8628C95.8872 49.7931 95.708 49.637 95.61 49.4301L93.1488 44.2489C93.0396 44.0194 93.0409 43.7502 93.1518 43.5156C93.2627 43.281 93.4717 43.1052 93.7213 43.0374L96.6576 42.2367C97.0883 42.1192 97.529 42.3472 97.6735 42.7623L99.3544 47.5976Z" fill="#FACB1B"/>
<path d="M86.4103 34.0213L84.667 36.9425C85.1385 38.6077 86.5644 40.2279 88.619 41.4146C89.3748 41.8511 90.0402 42.4309 90.5963 43.1028C93.8563 42.7161 96.7704 41.2226 97.0712 41.0657C96.8474 39.1177 96.862 37.1671 97.1135 35.5387C96.9917 34.817 96.424 34.2637 95.6983 34.1652L88.1598 33.173C87.4687 33.0745 86.7727 33.414 86.4103 34.0213Z" fill="black"/>
<path d="M96.7731 49.7998L98.9295 48.6534C99.0937 48.5659 99.2182 48.4318 99.299 48.2766C99.9106 49.2416 100.637 49.984 101.478 50.3811L103.929 51.7966C105.022 52.4281 105.346 53.722 105.118 54.9883C104.776 54.791 98.2311 54.0605 96.5758 49.8718C96.6434 49.8552 96.7103 49.8332 96.7731 49.7998Z" fill="black"/>
<path d="M96.6576 42.2367C97.0883 42.1192 97.5292 42.3468 97.6735 42.7623L99.3547 47.5978C99.4942 47.999 99.3125 48.4498 98.9299 48.6536L96.7735 49.8001C96.6346 49.8741 96.4806 49.9049 96.328 49.8985L94.574 42.8049L96.6576 42.2367Z" fill="#FBE158"/>
<path d="M95.6983 34.1652L92.9674 33.8059C93.9738 32.2683 94.9314 31.5583 95.558 31.9202C95.9154 32.1266 96.1047 34.1745 96.1145 34.2829C95.9828 34.2283 95.8448 34.1852 95.6983 34.1652Z" fill="#FBE158"/>
<path d="M95.6983 34.1652C96.424 34.2637 96.9917 34.817 97.1135 35.5387C96.862 37.1671 96.8474 39.1177 97.0712 41.0657C96.8994 41.1553 95.8746 41.6803 94.4211 42.1865L92.3277 33.722L95.6983 34.1652Z" fill="black"/>
<path d="M102.638 58.0851C102.675 58.1044 102.716 58.1197 102.754 58.1375C102.202 58.2944 101.508 58.2995 100.597 58.1238C99.9812 58.0053 99.0523 57.6346 98.0347 57.1631L97.6089 55.4412C99.1142 56.2455 100.778 57.1217 102.638 58.0851Z" fill="#E2E4E5"/>
<path d="M90.8344 39.6955C90.9119 40.7553 91.8364 41.5283 92.8997 41.4215L96.9647 41.0137C97.4375 40.9662 97.7925 40.5459 97.7584 40.0747L97.6028 37.9422C97.5683 37.4709 97.1573 37.1278 96.6847 37.1749L92.6197 37.5827C91.5564 37.6896 90.7569 38.6357 90.8344 39.6955Z" fill="#FACB1B"/>
<path d="M96.6847 37.1749C97.1576 37.1274 97.5683 37.4709 97.6028 37.9422L97.7584 40.0748C97.7931 40.5457 97.4376 40.9662 96.9647 41.0137L94.1994 41.2914L93.2665 37.5184L96.6847 37.1749Z" fill="#FBE158"/>
<path d="M62.1458 14.5938L56.6728 24.8743C56.154 25.8657 56.5336 26.9916 57.6161 27.6748C66.704 30.4008 78.7113 38.2862 78.1331 44.1495L78.167 48.3003C78.1888 50.9597 81.9941 52.6167 85.5421 52.5885L85.6581 52.5876C88.5077 52.565 90.4172 51.8439 91.7861 48.7581C93.1608 45.6585 92.9712 35.1429 92.9712 35.1429L92.8085 15.2736C92.7972 13.902 91.3045 12.8017 89.4746 12.8162L86.1611 12.8424L66.2799 13L65.2096 13.0085C63.8544 13.0192 62.6417 13.6467 62.1458 14.5938Z" fill="#0484AB"/>
<path d="M56.6728 24.8743C56.154 25.8657 56.5336 26.9916 57.6161 27.6748C66.704 30.4008 78.7113 38.2862 78.1331 44.1495L78.167 48.3003C78.1888 50.9597 81.9941 52.6167 85.5421 52.5885L85.6581 52.5876C88.5077 52.565 90.4172 51.8439 91.7861 48.7581C92.1587 47.9168 92.4166 46.5282 92.5942 44.9526L59.1197 20.2785L56.6728 24.8743Z" fill="#059BBF"/>
<path d="M84.7545 12.8536C84.8714 27.1346 87.8985 23.6954 87.9672 32.0777C88.0339 40.2248 85.0006 51.9128 84.8295 52.5631C85.0582 52.5805 85.2919 52.5905 85.5338 52.5886L85.6498 52.5876C88.4994 52.5651 90.4089 51.8439 91.7779 48.7581C93.1526 45.6586 92.9629 35.1429 92.9629 35.1429L92.8002 15.2736C92.789 13.902 91.2962 12.8017 89.4663 12.8162L84.7545 12.8536Z" fill="#DF2C2C"/>
<path d="M89.4994 12.816C91.3301 12.8015 92.822 13.9011 92.8333 15.2734L92.996 35.1427C92.996 35.1427 93.1815 45.6602 91.8068 48.7572C91.2374 50.0409 90.5736 50.9155 89.7913 51.4992C89.7991 51.437 89.8118 51.3755 89.8146 51.3127C91.2228 23.9795 89.5604 20.2669 89.5604 20.2669L89.4994 12.816V12.816Z" fill="#E2E4E5"/>
<path d="M84.8294 52.5625C85.0582 52.5799 85.2919 52.5899 85.5338 52.588L85.6497 52.587C88.4994 52.5645 90.4088 51.8433 91.7778 48.7575C92.1512 47.9156 92.409 46.5239 92.5866 44.9458L87.2041 40.9777C86.3111 46.8578 84.9427 52.1319 84.8294 52.5625Z" fill="#FA5655"/>
<path d="M87.9771 32.2844L87.967 31.0426C82.599 31.0852 77.0884 26.1413 77.0483 21.2454C77.0212 17.939 75.863 15.0011 73.8422 12.9394L71.7049 12.9564C74.0172 14.7823 75.3631 17.7826 75.3915 21.2585C75.4375 26.8728 81.6715 32.3344 87.9771 32.2844Z" fill="#21B2D1"/>
<path d="M75.5121 39.4162C76.0461 39.8888 76.9657 39.9914 77.6646 39.6574L81.6042 37.7733C81.9821 37.5921 82.2473 37.3049 82.3391 36.9757C82.4308 36.6465 82.341 36.3044 82.0903 36.0276L75.8168 29.0879C75.5393 28.7802 75.0911 28.5832 74.5971 28.5505C74.1031 28.5177 73.6138 28.6526 73.2655 28.9187L69.163 32.0454C68.5612 32.5041 68.5232 33.2303 69.0757 33.7196L75.5121 39.4162Z" fill="#FACB1B"/>
<path d="M65.2096 13.0085L71.7041 12.957C74.0221 14.7829 75.3639 17.7839 75.3924 21.261C75.4028 22.5401 75.7363 23.8104 76.3261 25.0104C72.6047 28.8525 67.3736 31.4399 66.829 31.705C63.8077 29.9841 60.5569 28.563 57.617 27.6797C56.5344 26.9928 56.1523 25.8657 56.6744 24.8743L62.1491 14.5975C62.6384 13.6498 63.8593 13.0192 65.2096 13.0085Z" fill="#DF2C2C"/>
<path d="M81.605 37.7733L77.6655 39.6574C77.3651 39.8008 77.0251 39.8594 76.6911 39.8471C77.7148 41.3336 78.2603 42.8016 78.1248 44.1595L78.1588 48.3072C78.1739 50.1575 80.016 51.5214 82.3326 52.1675C82.3279 51.5894 87.2983 42.7635 81.9107 37.5765C81.8194 37.6499 81.7197 37.7184 81.605 37.7733Z" fill="#FA5655"/>
<path d="M69.1631 32.0455C68.5612 32.5042 68.5224 33.2304 69.0757 33.7196L75.5121 39.4168C76.0461 39.8895 76.9657 39.9921 77.6655 39.6581L81.605 37.7739C81.8592 37.6527 82.0558 37.4804 82.1892 37.2825L72.0742 29.8267L69.1631 32.0455Z" fill="#FBE158"/>
<path d="M56.6745 24.8743L58.6579 21.1515C55.1556 21.291 53.0727 21.9794 53.0814 23.0399C53.0864 23.6447 56.3059 25.3957 56.4765 25.4881C56.5104 25.2811 56.5692 25.0745 56.6745 24.8743Z" fill="#FBE158"/>
<path d="M56.6744 24.8743C56.1523 25.8657 56.5344 26.9928 57.617 27.6797C60.5569 28.563 63.8077 29.9841 66.829 31.705C67.1401 31.5535 68.9792 30.6436 71.1924 29.1767L59.1229 20.2797L56.6744 24.8743Z" fill="#FA5655"/>
<path d="M89.8146 51.3127C89.811 51.3749 89.7983 51.4371 89.7913 51.4992C90.5736 50.9155 91.2374 50.0409 91.8068 48.7572C92.1916 47.8904 92.4539 46.4409 92.6327 44.8045L90.1773 42.9946C90.0901 45.4941 89.9726 48.2471 89.8146 51.3127Z" fill="white"/>
<path d="M70.4468 22.7973C72.1324 23.6775 72.5418 25.4186 71.3601 26.686L66.8433 31.5317C66.3177 32.0954 65.285 32.2346 64.5354 31.8437L61.1433 30.0729C60.3937 29.6814 60.2126 28.9079 60.7373 28.3443L65.2541 23.4986C66.4358 22.2311 68.7611 21.9171 70.4468 22.7973Z" fill="#FACB1B"/>
<path d="M60.7373 28.3443C60.2117 28.908 60.3937 29.6815 61.1433 30.073L64.5354 31.8437C65.2842 32.2352 66.3177 32.0954 66.8433 31.5317L69.9163 28.2356L64.5363 24.2699L60.7373 28.3443Z" fill="#FBE158"/>
<path d="M15.948 39.108C15.948 40.452 15.684 41.676 15.156 42.78C14.652 43.86 13.956 44.796 13.068 45.588C12.204 46.38 11.172 46.992 9.972 47.424C8.796 47.856 7.524 48.072 6.156 48.072C5.196 48.072 4.236 47.82 3.276 47.316C2.316 46.788 1.392 45.96 0.504 44.832L3.168 39.612C3.336 39.924 3.588 40.248 3.924 40.584C4.26 40.896 4.632 41.172 5.04 41.412C5.472 41.652 5.892 41.856 6.3 42.024C6.732 42.168 7.116 42.24 7.452 42.24C7.74 42.24 8.04 42.192 8.352 42.096C8.664 42 8.952 41.856 9.216 41.664C9.48 41.472 9.684 41.256 9.828 41.016C9.996 40.752 10.08 40.452 10.08 40.116C10.08 39.54 9.888 39.012 9.504 38.532C9.144 38.028 8.688 37.56 8.136 37.128C7.584 36.672 6.984 36.216 6.336 35.76C5.688 35.304 5.088 34.824 4.536 34.32C4.008 33.816 3.552 33.252 3.168 32.628C2.784 32.004 2.592 31.308 2.592 30.54C2.592 29.292 2.964 28.128 3.708 27.048C4.452 25.968 5.376 25.044 6.48 24.276C7.608 23.484 8.832 22.86 10.152 22.404C11.472 21.948 12.72 21.72 13.896 21.72C14.544 21.72 15.156 21.804 15.732 21.972C16.308 22.116 16.8 22.368 17.208 22.728C17.64 23.064 17.976 23.496 18.216 24.024C18.48 24.552 18.612 25.212 18.612 26.004C18.612 26.34 18.576 26.676 18.504 27.012C18.456 27.348 18.408 27.708 18.36 28.092L13.14 29.604C13.188 29.412 13.224 29.22 13.248 29.028C13.296 28.836 13.32 28.644 13.32 28.452C13.32 27.732 13.188 27.216 12.924 26.904C12.684 26.568 12.36 26.4 11.952 26.4C11.76 26.4 11.52 26.472 11.232 26.616C10.968 26.76 10.692 26.952 10.404 27.192C10.14 27.408 9.912 27.672 9.72 27.984C9.528 28.296 9.432 28.632 9.432 28.992C9.432 29.568 9.588 30.048 9.9 30.432C10.236 30.816 10.644 31.176 11.124 31.512C11.604 31.848 12.12 32.196 12.672 32.556C13.248 32.892 13.776 33.336 14.256 33.888C14.736 34.44 15.132 35.136 15.444 35.976C15.78 36.792 15.948 37.836 15.948 39.108ZM19.8247 48.18C20.4967 44.796 21.1447 41.496 21.7687 38.28C22.0087 36.936 22.2607 35.532 22.5247 34.068C22.8127 32.58 23.0767 31.128 23.3167 29.712C23.5567 28.272 23.7727 26.892 23.9647 25.572C24.1807 24.228 24.3487 23.004 24.4687 21.9C25.2127 21.852 25.9327 21.804 26.6287 21.756C27.2527 21.708 27.8887 21.672 28.5367 21.648C29.1847 21.6 29.7607 21.552 30.2647 21.504C30.5767 23.352 30.8527 25.116 31.0927 26.796C31.2127 27.516 31.3327 28.272 31.4528 29.064C31.5967 29.832 31.7287 30.576 31.8487 31.296C31.9688 32.016 32.0888 32.712 32.2088 33.384C32.3288 34.032 32.4488 34.608 32.5687 35.112C32.6648 34.608 32.7728 34.032 32.8928 33.384C33.0127 32.712 33.1447 32.016 33.2888 31.296C33.4327 30.552 33.5767 29.796 33.7208 29.028C33.8888 28.26 34.0448 27.516 34.1888 26.796C34.5488 25.116 34.9208 23.364 35.3048 21.54L39.6968 21C38.8808 24.6 38.1608 28.008 37.5368 31.224C37.2488 32.616 36.9608 34.02 36.6728 35.436C36.4088 36.852 36.1568 38.22 35.9167 39.54C35.6767 40.86 35.4728 42.084 35.3048 43.212C35.1368 44.316 35.0048 45.252 34.9087 46.02C34.8368 46.02 34.5488 46.08 34.0448 46.2C33.5647 46.296 33.0007 46.416 32.3527 46.56C31.7287 46.704 31.0927 46.86 30.4448 47.028C29.8207 47.172 29.3527 47.292 29.0408 47.388C28.8728 45.444 28.6928 43.596 28.5007 41.844C28.4287 41.1 28.3447 40.332 28.2487 39.54C28.1527 38.748 28.0567 37.992 27.9607 37.272C27.8887 36.552 27.8047 35.88 27.7087 35.256C27.6367 34.608 27.5647 34.068 27.4927 33.636C27.4207 34.068 27.3247 34.596 27.2047 35.22C27.0847 35.844 26.9647 36.516 26.8447 37.236C26.7247 37.932 26.6047 38.664 26.4847 39.432C26.3647 40.176 26.2327 40.908 26.0887 41.628C25.7767 43.332 25.4407 45.108 25.0807 46.956L19.8247 48.18ZM40.3492 48.036L45.0652 22.44L56.4412 21.468C56.2732 21.996 56.1292 22.536 56.0092 23.088C55.8892 23.544 55.7692 24.024 55.6492 24.528C55.5532 25.008 55.4692 25.44 55.3972 25.824C55.1572 25.848 54.8092 25.872 54.3532 25.896C53.9212 25.896 53.4532 25.908 52.9492 25.932C52.4452 25.932 51.9292 25.932 51.4012 25.932C50.8972 25.932 50.4532 25.932 50.0692 25.932L48.8092 32.376C49.5532 32.328 50.2492 32.292 50.8972 32.268C51.4252 32.244 51.9652 32.232 52.5172 32.232C53.0692 32.232 53.4772 32.22 53.7412 32.196C53.6452 32.868 53.5492 33.528 53.4532 34.176C53.3812 34.824 53.2852 35.484 53.1652 36.156C52.9252 36.18 52.5292 36.204 51.9772 36.228C51.4492 36.228 50.9092 36.24 50.3572 36.264C49.7332 36.288 49.0492 36.312 48.3052 36.336L47.0812 42.96L52.3372 42.132L51.9772 46.236L40.3492 48.036ZM69.7188 47.28C69.1188 47.376 68.4588 47.484 67.7388 47.604C67.0188 47.724 66.3708 47.832 65.7948 47.928C65.8908 47.136 65.9868 46.356 66.0828 45.588C66.1548 44.916 66.2148 44.244 66.2628 43.572C66.3348 42.9 66.3948 42.324 66.4428 41.844H63.3108L61.8708 47.028C61.3428 47.1 60.7188 47.184 59.9988 47.28C59.2788 47.352 58.6068 47.424 57.9828 47.496C57.2148 47.592 56.4588 47.688 55.7148 47.784C56.6748 44.592 57.6228 41.448 58.5588 38.352C58.9428 37.056 59.3388 35.7 59.7468 34.284C60.1788 32.868 60.5988 31.464 61.0068 30.072C61.4388 28.656 61.8468 27.3 62.2308 26.004C62.6148 24.708 62.9508 23.52 63.2388 22.44C64.8708 22.32 66.5268 22.176 68.2068 22.008C69.9108 21.84 71.5668 21.612 73.1748 21.324C73.1028 22.092 73.0188 23.052 72.9228 24.204C72.8508 25.332 72.7788 26.568 72.7068 27.912C72.6348 29.256 72.5628 30.66 72.4908 32.124C72.4188 33.588 72.3468 35.028 72.2748 36.444C72.1548 39.756 72.0228 43.272 71.8788 46.992C71.1588 47.112 70.4388 47.208 69.7188 47.28ZM64.1748 38.244C64.2708 38.244 64.4388 38.244 64.6788 38.244C64.9428 38.22 65.2068 38.208 65.4708 38.208C65.7588 38.184 66.0228 38.172 66.2628 38.172C66.5028 38.148 66.6708 38.124 66.7668 38.1C66.7668 37.956 66.7788 37.716 66.8028 37.38C66.8508 37.02 66.8868 36.624 66.9108 36.192C66.9588 35.736 67.0068 35.244 67.0548 34.716C67.1028 34.188 67.1508 33.672 67.1988 33.168C67.2948 31.944 67.4148 30.624 67.5588 29.208L67.7748 26.076L67.2348 26.112L66.4068 29.208L64.1748 38.244ZM98.8155 48.036L103.531 22.44L114.907 21.468C114.739 21.996 114.595 22.536 114.475 23.088C114.355 23.544 114.235 24.024 114.115 24.528C114.019 25.008 113.935 25.44 113.863 25.824C113.623 25.848 113.275 25.872 112.819 25.896C112.387 25.896 111.919 25.908 111.415 25.932C110.911 25.932 110.395 25.932 109.867 25.932C109.363 25.932 108.919 25.932 108.535 25.932L107.275 32.376C108.019 32.328 108.715 32.292 109.363 32.268C109.891 32.244 110.431 32.232 110.983 32.232C111.535 32.232 111.943 32.22 112.207 32.196C112.111 32.868 112.015 33.528 111.919 34.176C111.847 34.824 111.751 35.484 111.631 36.156C111.391 36.18 110.995 36.204 110.443 36.228C109.915 36.228 109.375 36.24 108.823 36.264C108.199 36.288 107.515 36.312 106.771 36.336L105.547 42.96L110.803 42.132L110.443 46.236L98.8155 48.036ZM115.081 48.036C115.729 44.844 116.353 41.724 116.953 38.676C117.169 37.38 117.409 36.036 117.673 34.644C117.937 33.228 118.177 31.836 118.393 30.468C118.633 29.076 118.849 27.744 119.041 26.472C119.257 25.176 119.425 24 119.545 22.944C120.913 22.512 122.389 22.2 123.973 22.008C125.557 21.792 127.129 21.684 128.689 21.684C129.625 21.684 130.393 21.792 130.993 22.008C131.617 22.224 132.097 22.536 132.433 22.944C132.793 23.328 133.045 23.784 133.189 24.312C133.333 24.84 133.405 25.428 133.405 26.076C133.405 27.036 133.237 27.984 132.901 28.92C132.565 29.832 132.109 30.708 131.533 31.548C130.981 32.364 130.333 33.12 129.589 33.816C128.869 34.488 128.089 35.04 127.249 35.472C127.681 36.432 128.137 37.488 128.617 38.64C129.121 39.768 129.589 40.848 130.021 41.88C130.501 43.08 130.993 44.28 131.497 45.48L125.917 47.424C125.437 45.768 125.005 44.208 124.621 42.744C124.453 42.144 124.285 41.532 124.117 40.908C123.949 40.26 123.793 39.66 123.649 39.108C123.505 38.532 123.385 38.028 123.289 37.596C123.193 37.164 123.133 36.828 123.109 36.588L122.641 36.732C122.497 37.5 122.317 38.436 122.101 39.54C121.909 40.644 121.729 41.712 121.561 42.744C121.345 43.968 121.129 45.228 120.913 46.524L115.081 48.036ZM123.541 32.412C123.997 32.364 124.549 32.172 125.197 31.836C125.869 31.5 126.505 31.104 127.105 30.648C127.705 30.168 128.221 29.676 128.653 29.172C129.085 28.668 129.301 28.224 129.301 27.84C129.301 27.576 129.217 27.372 129.049 27.228C128.881 27.06 128.641 26.94 128.329 26.868C128.041 26.772 127.717 26.712 127.357 26.688C126.997 26.664 126.625 26.652 126.241 26.652C125.977 26.652 125.701 26.664 125.413 26.688C125.149 26.688 124.909 26.688 124.693 26.688L123.541 32.412ZM150.67 39.108C150.67 40.452 150.406 41.676 149.878 42.78C149.374 43.86 148.678 44.796 147.79 45.588C146.926 46.38 145.894 46.992 144.694 47.424C143.518 47.856 142.246 48.072 140.878 48.072C139.918 48.072 138.958 47.82 137.998 47.316C137.038 46.788 136.114 45.96 135.226 44.832L137.89 39.612C138.058 39.924 138.31 40.248 138.646 40.584C138.982 40.896 139.354 41.172 139.762 41.412C140.194 41.652 140.614 41.856 141.022 42.024C141.454 42.168 141.838 42.24 142.174 42.24C142.462 42.24 142.762 42.192 143.074 42.096C143.386 42 143.674 41.856 143.938 41.664C144.202 41.472 144.406 41.256 144.55 41.016C144.718 40.752 144.802 40.452 144.802 40.116C144.802 39.54 144.61 39.012 144.226 38.532C143.866 38.028 143.41 37.56 142.858 37.128C142.306 36.672 141.706 36.216 141.058 35.76C140.41 35.304 139.81 34.824 139.258 34.32C138.73 33.816 138.274 33.252 137.89 32.628C137.506 32.004 137.314 31.308 137.314 30.54C137.314 29.292 137.686 28.128 138.43 27.048C139.174 25.968 140.098 25.044 141.202 24.276C142.33 23.484 143.554 22.86 144.874 22.404C146.194 21.948 147.442 21.72 148.618 21.72C149.266 21.72 149.878 21.804 150.454 21.972C151.03 22.116 151.522 22.368 151.93 22.728C152.362 23.064 152.698 23.496 152.938 24.024C153.202 24.552 153.334 25.212 153.334 26.004C153.334 26.34 153.298 26.676 153.226 27.012C153.178 27.348 153.13 27.708 153.082 28.092L147.862 29.604C147.91 29.412 147.946 29.22 147.97 29.028C148.018 28.836 148.042 28.644 148.042 28.452C148.042 27.732 147.91 27.216 147.646 26.904C147.406 26.568 147.082 26.4 146.674 26.4C146.482 26.4 146.242 26.472 145.954 26.616C145.69 26.76 145.414 26.952 145.126 27.192C144.862 27.408 144.634 27.672 144.442 27.984C144.25 28.296 144.154 28.632 144.154 28.992C144.154 29.568 144.31 30.048 144.622 30.432C144.958 30.816 145.366 31.176 145.846 31.512C146.326 31.848 146.842 32.196 147.394 32.556C147.97 32.892 148.498 33.336 148.978 33.888C149.458 34.44 149.854 35.136 150.166 35.976C150.502 36.792 150.67 37.836 150.67 39.108Z" fill="#250001"/>
</svg>
