<svg width="669" height="693" viewBox="0 0 669 693" fill="none" xmlns="http://www.w3.org/2000/svg">
<path d="M630.668 420.518C630.668 544.33 530.308 644.695 406.514 644.695C282.714 644.695 182.36 544.33 182.36 420.518C182.36 296.711 282.714 196.339 406.514 196.339C530.308 196.339 630.668 296.711 630.668 420.518Z" fill="#D8D5AD"/>
<path d="M419.776 160.263C380.982 108.446 330.734 57.6933 265.51 13.5422C265.51 13.5422 261.687 49.949 275.807 94.0224C329.598 103.302 380.471 125.684 419.776 160.263Z" fill="#B43C00"/>
<path d="M462.671 225.283C450.224 203.69 435.985 181.888 419.775 160.263C380.47 125.684 329.598 103.302 275.807 94.0222C277.791 100.22 280.123 106.572 282.879 112.99C288.634 126.41 290.194 144.414 288.943 165.249C352.357 165.914 415.275 187.06 462.671 225.283Z" fill="#C34005"/>
<path d="M462.671 225.283C415.276 187.06 352.357 165.915 288.944 165.249C286.931 198.621 277.646 239.304 266.466 280.318C352.05 271.758 440.438 288.235 511.701 330.297C499.531 297.189 483.572 261.553 462.671 225.283Z" fill="#CA5622"/>
<path d="M511.701 330.296C440.438 288.234 352.048 271.757 266.466 280.319C251.505 335.21 247.591 345.449 238.839 375.726C212.885 465.56 444.36 301.686 550.685 508.115C550.685 508.115 548.659 430.919 511.701 330.296" fill="white"/>
<path d="M561.32 526.969C561.32 526.969 562.737 216.452 273.851 9.4972e-05L265.51 13.5436C265.51 13.5436 506.122 136.721 538.508 528.968L561.32 526.969Z" fill="#2A5447"/>
<path d="M517.213 345.856C517.213 345.856 278.607 323.048 208.777 431.288L218.306 437.268C218.306 437.268 280.253 343.642 521.92 365.104L517.213 345.856Z" fill="#2A5447"/>
<path d="M334.195 386.29C332.61 388.269 326.222 399.46 335.379 412.044C344.537 424.629 359.954 431.963 368.531 421.563C377.115 411.18 365.84 383.973 352.642 381.333C339.455 378.682 334.195 386.29 334.195 386.29Z" fill="#FFC77F"/>
<path d="M397.247 445.896C383.528 440.825 373.137 431.475 369.596 415.797C368.094 415.715 366.362 415.706 364.514 415.786C366.244 436.294 368.832 456.384 379.453 472.629C389.062 469.285 400.56 468.462 411.759 470.583C406.203 464.822 400.86 454.945 397.247 445.896Z" fill="#2A5447"/>
<path d="M342.43 422.556C343.84 437.601 346.111 449.547 342.369 460.918C351.65 471.828 357.824 480.735 360.999 485.673C362.669 483.239 364.845 481.133 367.27 479.229C355.477 461.995 351.377 439.876 344.375 421.385C343.729 421.764 343.075 422.136 342.43 422.556Z" fill="#2A5447"/>
<path d="M364.515 415.786C358.595 416.029 351.259 417.375 344.376 421.384C351.376 439.876 355.476 461.994 367.271 479.229C370.751 476.485 374.838 474.233 379.454 472.627C368.831 456.384 366.243 436.293 364.515 415.786Z" fill="#184537"/>
<path d="M342.43 422.557C340.591 423.787 338.781 425.158 337.077 426.843C337.077 426.843 291.035 396.923 296.274 368.447L304.046 365.806C304.046 365.806 293.51 356.615 289.088 370.481C283.111 389.223 290.159 406.895 326.676 438.893C333.011 445.206 337.685 455.401 342.369 460.918C346.111 449.547 343.84 437.602 342.43 422.557Z" fill="#FFC77F"/>
<path d="M419.757 345.288L429 344.744C429 344.744 426.17 337.938 415.484 340.714C400.922 344.492 376.187 416.595 376.187 416.595C376.187 416.595 373.591 416.016 369.596 415.796C373.137 431.475 383.528 440.827 397.247 445.896C394.712 439.522 393.029 433.564 392.773 429.767C392.773 429.767 400.551 376.855 419.757 345.288" fill="#FFC77F"/>
<path d="M416.817 494.019C416.817 494.019 416.163 494.425 416.817 494.019C405.247 496.212 390.107 503.369 377.969 502.328C382.153 504.169 387.379 505.578 393.915 505.847C401.442 506.163 407.144 508.467 411.483 511.936C416.935 511.219 423.304 509.047 428.261 506.07C425.086 502.122 416.817 494.019 416.817 494.019Z" fill="#C34005"/>
<path d="M428.261 506.071C423.471 506.936 416.935 511.22 411.482 511.937C429.524 526.379 435.63 555.621 435.63 555.621L441.889 548.681C441.889 548.681 437.595 527.518 428.261 506.071Z" fill="#FFC77F"/>
<path d="M448.989 491.436C453.271 486.67 456.103 480.776 457.559 474.456C446.333 471.629 423.599 466.52 411.759 470.584C411.759 470.584 415.38 474.334 411.759 470.584C391.446 466.751 370.087 472.494 360.999 485.673C362.741 488.382 363.632 489.937 363.632 489.937C363.632 489.937 367.309 497.63 377.968 502.328C390.108 503.368 405.248 496.214 416.817 494.018C420.181 491.931 448.989 491.436 448.989 491.436Z" fill="#CA5622"/>
<path d="M457.56 474.455C456.102 480.776 453.27 486.67 448.99 491.436C448.99 491.436 486.267 492.816 500.243 508.115L509.649 504.24C509.649 504.24 486.328 481.714 457.56 474.455Z" fill="#FFC77F"/>
<path d="M661.878 384.979C632.123 403.077 496.529 486.929 425.242 555.087C353.812 623.398 345.668 683.633 344.732 696.17C413.271 662.523 477.573 624.644 532.912 581.611C620.226 517.042 647.684 448.346 661.878 384.979Z" fill="#FFA922"/>
<path d="M661.879 384.979C647.684 448.346 620.227 517.042 532.912 581.611C477.574 624.644 413.271 662.523 344.732 696.17C344.619 697.73 344.603 698.591 344.603 698.591L403.702 686.405C403.702 686.405 524.948 680.478 609.714 570.911C677.55 483.208 667.763 381.417 667.763 381.417C667.763 381.417 665.674 382.668 661.879 384.979Z" fill="#FF9822"/>
<path d="M364.017 402.639C364.017 402.639 358.491 396.402 355.949 399.519C353.401 402.645 358.167 411.153 364.443 407.987C364.443 407.987 362.003 423.486 356.789 424.335C351.574 425.175 354.859 417.379 354.859 417.379C354.859 417.379 353.947 425.772 350.757 424.869C347.569 423.946 347.117 420.149 347.117 420.149C347.117 420.149 348.006 427.643 344.609 425.406C341.213 423.161 342.411 419.614 342.411 419.614C342.411 419.614 341.01 423.429 338.288 421.976C335.564 420.53 337.88 416.896 337.88 416.896C337.88 416.896 328.182 411.984 327.409 405.857C326.637 399.729 329.932 391.282 329.932 391.282C329.932 391.282 324.285 391.642 325.98 388.137C327.665 384.627 329.659 387.812 329.659 387.812C329.659 387.812 329.613 383.435 331.831 382.043C334.055 380.644 333.596 385.433 333.596 385.433C333.596 385.433 338.381 378.955 347.151 376.874C355.922 374.786 351.5 378.859 351.5 378.859C351.5 378.859 360.654 374.656 363.816 379.242C366.978 383.814 363.156 384.872 363.156 384.872C363.156 384.872 370.338 386.413 369.81 389.098C369.288 391.775 363.118 391.409 363.118 391.409C363.118 391.409 365.899 395.231 366.818 397.78C367.74 400.332 363.632 397.792 363.632 397.792C363.632 397.792 370.746 406.577 364.017 402.639Z" fill="#083829"/>
<path d="M376.999 618.458C376.999 618.458 336.592 571.022 285.633 526.45C234.658 481.878 254.03 535.602 254.03 535.602C254.03 535.602 182.046 481.878 175.328 497.872C168.603 513.879 212.654 549.315 212.654 549.315C212.654 549.315 128.162 470.455 107.375 484.172C86.5878 497.872 142.756 544.753 142.756 544.753C142.756 544.753 79.7485 523.422 70.644 530.66C61.5413 537.885 109.473 579.725 109.473 579.725C109.473 579.725 38.7411 565.56 30.772 579.725C22.8011 593.908 69.5161 618.458 69.5161 618.458C69.5161 618.458 10.2674 610.566 4.5749 631.372C-1.11946 652.192 59.3481 673.899 59.3481 673.899C59.3481 673.899 1.16474 657.904 0.0292761 673.899C-1.11945 689.909 31.9189 706.252 31.9189 706.252L417.555 704.557L376.999 618.458Z" fill="#009ED3"/>
<path d="M486.188 657.673C486.188 657.673 441.003 602.813 417.575 595.95C394.127 589.095 416.542 618.226 416.542 618.226C416.542 618.226 375.102 563.947 331.665 557.092C288.197 550.229 322.107 589.095 322.107 589.095C322.107 589.095 255.162 562.799 243.776 573.085C232.393 583.374 269.258 601.664 269.258 601.664C269.258 601.664 221.874 586.816 214.039 599.368C206.18 611.951 246.054 626.812 246.054 626.812C246.054 626.812 151.892 606.237 132.356 629.092C112.786 651.96 168.501 645.087 168.501 645.087C168.501 645.087 112.17 661.78 94.2624 706.02L544.771 704.242C544.771 704.242 502.151 633.204 484.292 631.14C466.468 629.092 486.188 657.673 486.188 657.673Z" fill="#15ADD7"/>
<path d="M476.107 700.777C476.107 700.777 410.186 633.635 387.85 640.494C365.529 647.351 384.974 670.387 384.974 670.387C384.974 670.387 336.722 635.383 318.35 639.996C300.014 644.587 318.35 670.186 318.35 670.186C318.35 670.186 290.657 660.914 290.657 687.078C290.657 687.078 301.693 666.525 332.929 680.221C332.929 680.221 317.072 659.666 323.045 650.064C328.986 640.494 401.779 685.697 401.779 685.697C401.779 685.697 369.927 650.512 393.675 647.351C408.121 645.389 476.107 700.777 476.107 700.777Z" fill="#009ED3"/>
<path d="M255.163 668.472C255.163 668.472 230.116 657.289 218.714 670.186C207.329 683.051 233.527 692.206 233.527 692.206C233.527 692.206 195.929 678.143 187.974 692.206C187.974 692.206 184.017 679.309 208.778 678.321C208.778 678.321 221.461 644.206 255.163 668.472Z" fill="#009ED3"/>
</svg>
